<svg width="200" height="200" viewBox="0 0 280 280" fill="none" xmlns="http://www.w3.org/2000/svg"><path d="M260 160c0 66.274-53.726 120-120 120S20 226.274 20 160 73.726 40 140 40s120 53.726 120 120z" fill="#a88af1"></path><mask id="wt9ui" maskUnits="userSpaceOnUse" x="8" y="0" width="264" height="280"><path fill-rule="evenodd" clip-rule="evenodd" d="M272 0H8v160h12c0 66.274 53.726 120 120 120s120-53.726 120-120h12V0z" fill="#fff"></path></mask><g mask="url(#wt9ui)"><g transform="translate(40, 36)"><path d="M100 0C69.072 0 44 25.072 44 56v6.166c-5.675.952-10 5.888-10 11.834v14c0 6.052 4.48 11.058 10.305 11.881 2.067 19.806 14.458 36.541 31.695 44.73V163h-4c-39.764 0-72 32.236-72 72v9h200v-9c0-39.764-32.236-72-72-72h-4v-18.389c17.237-8.189 29.628-24.924 31.695-44.73C161.52 99.058 166 94.052 166 88V74c0-5.946-4.325-10.882-10-11.834V56c0-30.928-25.072-56-56-56z" fill="#D08B5B"></path><path d="M76 144.611v8A55.79 55.79 0 00100 158a55.789 55.789 0 0024-5.389v-8A55.789 55.789 0 01100 150a55.79 55.79 0 01-24-5.389z" fill="#000" fill-opacity=".1"></path></g><g transform="translate(8, 170)"><path d="M108 14.694C92.484 18.38 80.895 25.529 77.228 34.142 50.72 44.765 32 70.696 32 101v9h200v-9.001c0-30.303-18.721-56.234-45.228-66.858-3.667-8.613-15.256-15.761-30.772-19.447V32c0 13.255-10.745 24-24 24s-24-10.745-24-24V14.694z" fill="#262E33"></path><path d="M102 63.337a67.11 67.11 0 01-7-2.817V110h7V63.337zm60 0a67.039 67.039 0 007-2.817V98.5a3.5 3.5 0 11-7 0V63.337z" fill="#F4F4F4"></path><path d="M187.62 34.488a71.788 71.788 0 0110.832 5.628C197.107 55.615 167.87 68 132 68c30.928 0 56-13.431 56-30 0-1.188-.129-2.36-.38-3.512zm-111.24 0A16.477 16.477 0 0076 38c0 16.569 25.072 30 56 30-35.87 0-65.107-12.385-66.452-27.884a71.783 71.783 0 0110.832-5.628z" fill="#000" fill-opacity=".16"></path></g><g transform="translate(86, 134)"><path fill-rule="evenodd" clip-rule="evenodd" d="M35.118 15.128C36.176 24.62 44.226 32 54 32c9.804 0 17.874-7.426 18.892-16.96.082-.767-.775-2.04-1.85-2.04H37.088c-1.08 0-2.075 1.178-1.97 2.128z" fill="#000" fill-opacity=".7"></path><path d="M70 13H39a5 5 0 005 5h21a5 5 0 005-5z" fill="#fff"></path><path d="M66.694 27.138A10.964 10.964 0 0059 24c-1.8 0-3.5.433-5 1.2-1.5-.767-3.2-1.2-5-1.2-2.995 0-5.71 1.197-7.693 3.138A18.93 18.93 0 0054 32c4.88 0 9.329-1.84 12.694-4.862z" fill="#FF4F6D"></path></g><g transform="translate(112, 122)"><path fill-rule="evenodd" clip-rule="evenodd" d="M16 8c0 4.418 5.373 8 12 8s12-3.582 12-8" fill="#000" fill-opacity=".16"></path></g><g transform="translate(84, 90)"><path d="M44 20.727c0 4.268-6.268 7.727-14 7.727s-14-3.46-14-7.727S22.268 13 30 13s14 3.46 14 7.727zm52 0c0 4.268-6.268 7.727-14 7.727s-14-3.46-14-7.727S74.268 13 82 13s14 3.46 14 7.727z" fill="#fff"></path><path d="M32.82 28.297c-.91.103-1.854.157-2.82.157-.966 0-1.91-.054-2.82-.157a6 6 0 115.64 0zm52 0c-.91.103-1.854.157-2.82.157-.966 0-1.91-.054-2.82-.157a6 6 0 115.64 0z" fill="#000" fill-opacity=".7"></path></g><g transform="translate(84, 82)"><path d="M15.63 17.159c3.915-5.51 14.648-8.598 23.893-6.328a2 2 0 10.954-3.884C29.74 4.31 17.312 7.887 12.37 14.84a2 2 0 103.26 2.318zm80.74 0c-3.915-5.51-14.648-8.598-23.893-6.328a2 2 0 11-.954-3.884c10.737-2.637 23.165.94 28.108 7.894a2 2 0 01-3.26 2.318z" fill="#000" fill-opacity=".6"></path></g><g transform="translate(7, 0)"><path d="M187.709 56.124c.892 3.247 2.163 11.95-.072 14.833-.746.962-5.841-1.74-7.966-2.913-1.243-.687-2.415-1.34-3.532-1.963-14.915-8.316-19.735-11.004-45.893-10.623-28.116.409-47.379 13.582-48.462 14.93-.754.937-1.716 3.44-2.508 10.412-.25 2.208-.32 4.97-.39 7.713-.15 5.922-.298 11.76-2.255 11.75-2.44-.013-2.97-23.786-1.917-33.217.04-.352.106-.773.178-1.226.223-1.407.496-3.129.155-4.114-.153-.444-.54-.714-.937-.991-.62-.434-1.265-.884-1.077-2.04.212-1.305 1.092-1.429 1.964-1.551.569-.08 1.135-.16 1.509-.567 1.128-1.228.453-1.867-.318-2.597-.455-.431-.944-.894-1.115-1.53-.634-2.36 1.024-3.094 2.687-3.83l.38-.169c.687-.31 1.103-.416 1.42-.498.593-.152.848-.217 1.886-1.348-2.131-1.563-2.902-3.691.016-4.833.56-.219 1.522-.208 2.5-.198 1.19.013 2.403.026 2.936-.374.148-.111.244-.53.33-.904.06-.264.115-.506.18-.598 1.35-1.931 1.234-3.399 1.078-5.39a59.637 59.637 0 01-.068-.926c-.129-2.038-.112-3.909 2.329-4.112 1.004-.084 1.894.39 2.77.858.544.29 1.083.578 1.641.728.875.235 1.1.435 1.321.432.189-.002.375-.152.958-.553 1.187-.818 1.31-2.05 1.434-3.29.11-1.087.219-2.181 1.042-3.013 1.576-1.59 2.798-.63 3.996.31.643.505 1.28 1.005 1.96 1.1 2.546.355 3.064-1.063 3.622-2.59.367-1.005.752-2.058 1.745-2.681 1.829-1.15 2.647-.048 3.434 1.013.499.672.985 1.327 1.709 1.384 1.004.079 2.506-1.093 3.839-2.133.814-.636 1.565-1.221 2.099-1.442 2.269-.936 3.917.064 5.585 1.077 1.408.855 2.83 1.718 4.652 1.434.298-.046.573-.091.831-.134 2.238-.37 3.107-.513 5.446.962 1.69 1.065 2.52.91 3.738.683.606-.113 1.308-.244 2.26-.251 1.111-.009 1.986.497 2.829.984.693.4 1.365.79 2.13.869.423.044.837-.155 1.259-.357.42-.202.848-.407 1.301-.38 1.827.111 2.688 1.493 3.554 2.884.668 1.072 1.339 2.15 2.46 2.652 1.619.726 3.436.248 5.171-.208.783-.206 1.549-.408 2.274-.493 3.959-.464 3.277 1.968 2.549 4.56-.318 1.132-.644 2.295-.595 3.26 1.148.268 2.305-.153 3.46-.573 1.092-.397 2.183-.794 3.264-.607 3.398.586 2.254 4.021 1.442 6.46l-.074.22c.635-.012 1.538-.205 2.552-.422 2.863-.611 6.619-1.414 7.78 1.129.479 1.051.014 2.31-.44 3.537-.313.847-.62 1.678-.607 2.415.026 1.527.71 2.896 1.396 4.267.455.91.912 1.823 1.175 2.783z" fill="#4A312C"></path><path d="M186.361 73.608c.254.176.427.296.471.32 1.757.99 3.148 10.9 3.216 14.69.042 2.338.079 11.256-2.394 10.485-.753-.235-1.902-4.956-2.066-7.719-.163-2.763-1.733-12.164-4.141-16.49a11.833 11.833 0 00-.526-.814c-.649-.952-1.437-2.109-.919-2.745.722-.887 1.426-.575 2.259-.207.142.062.287.126.436.187.868.35 2.771 1.672 3.664 2.293z" fill="#4A312C"></path></g></g></svg>